<?xml version="1.0" standalone="no"?>
<!DOCTYPE svg PUBLIC "-//W3C//DTD SVG 20010904//EN"
 "http://www.w3.org/TR/2001/REC-SVG-20010904/DTD/svg10.dtd">
<svg version="1.0" xmlns="http://www.w3.org/2000/svg"
 width="300.000000pt" height="300.000000pt" viewBox="0 0 300.000000 300.000000"
 preserveAspectRatio="xMidYMid meet">
<metadata>
Created by potrace 1.10, written by Peter Selinger 2001-2011
</metadata>
<g transform="translate(0.000000,300.000000) scale(0.100000,-0.100000)"
fill="#000000" stroke="none">
<path d="M1323 2801 c-103 -37 -183 -111 -236 -217 -23 -45 -41 -120 -62 -246
-8 -53 -42 -89 -85 -91 -30 -2 -36 2 -38 21 -2 13 4 32 14 43 9 10 12 19 6 19
-14 0 -42 -40 -42 -61 0 -25 39 -69 62 -69 18 0 17 -3 -10 -35 -40 -45 -50
-96 -28 -143 16 -33 16 -37 1 -48 -29 -21 -136 -36 -183 -26 -73 17 -96 51
-71 105 23 50 82 55 108 9 10 -15 10 -16 11 0 0 22 -47 58 -77 58 -32 0 -80
-26 -93 -49 -24 -46 -8 -109 39 -148 l26 -22 -32 -1 c-18 0 -55 -9 -83 -19
-113 -43 -177 -130 -167 -228 5 -50 4 -54 -22 -68 -47 -24 -137 -130 -155
-181 -29 -87 -20 -172 27 -241 25 -37 44 -45 26 -11 -28 52 8 189 71 267 36
46 133 115 163 116 12 1 34 9 49 19 18 12 42 17 74 15 45 -3 48 -1 125 70 78
73 97 102 42 65 -15 -10 -32 -17 -36 -16 -5 1 -5 -3 -1 -9 5 -9 2 -10 -10 -6
-9 4 -15 3 -12 -2 6 -9 -61 -71 -69 -63 -3 3 -5 1 -5 -5 0 -5 -6 -10 -12 -11
-32 -2 -104 -24 -117 -35 -12 -10 -13 -9 -7 2 7 10 3 12 -14 6 -49 -15 -100
41 -100 109 0 48 13 79 55 124 46 52 113 79 220 91 95 11 123 21 58 21 -106 0
-174 139 -87 179 35 16 36 14 9 -14 -25 -24 -34 -76 -17 -102 13 -21 80 -43
130 -43 120 0 218 62 271 173 30 62 31 62 32 27 1 -19 5 -48 10 -65 5 -20 7
-3 4 50 -3 44 1 150 9 235 7 85 12 156 11 158 -6 6 -27 -109 -29 -159 -2 -26
-9 -56 -17 -65 -9 -12 -10 -15 -1 -10 29 17 9 -4 -25 -26 -46 -30 -83 -40
-103 -28 -11 7 -8 10 13 10 41 0 102 64 106 110 6 76 32 184 55 236 27 58 104
147 148 170 33 17 41 18 32 2 -4 -7 -3 -8 5 -4 6 4 9 11 6 16 -11 19 106 43
184 38 155 -9 267 -94 353 -270 56 -113 96 -158 141 -158 24 0 28 -3 17 -10
-8 -5 -25 -10 -38 -10 -30 0 -84 28 -77 40 4 6 -8 10 -27 10 -47 0 -68 15 -37
26 13 4 27 7 32 6 12 -3 9 2 -37 64 -28 37 -41 63 -35 69 29 29 -19 86 -66 77
-24 -4 -26 -8 -21 -33 3 -16 1 -31 -5 -34 -5 -4 -8 -3 -7 2 5 14 -74 103 -106
120 -25 13 -21 7 19 -30 44 -41 47 -46 27 -47 -13 0 -43 16 -66 35 -49 40 -62
44 -44 15 7 -11 18 -20 25 -20 21 0 63 -61 63 -91 0 -20 8 -34 25 -45 24 -16
27 -16 46 2 20 18 20 18 16 -19 -2 -20 -7 -40 -10 -44 -4 -3 -7 -11 -7 -17 0
-7 4 -6 11 1 10 10 17 33 18 66 1 28 21 19 28 -13 6 -35 76 -100 105 -100 31
0 11 -19 -27 -26 -44 -8 -72 -1 -119 31 -21 14 -34 20 -31 14 4 -6 21 -20 39
-31 l31 -20 -53 5 c-37 3 -68 14 -105 37 -28 18 -80 49 -115 69 -36 20 -61 40
-58 47 3 7 -1 17 -8 23 -7 6 -18 28 -24 49 -7 22 -23 56 -37 76 -25 38 -25 56
0 56 7 0 15 6 18 13 3 9 17 9 65 -4 33 -8 59 -12 56 -7 -3 4 -11 8 -17 8 -7 0
-24 7 -40 15 -24 12 -33 12 -68 0 -23 -8 -45 -13 -49 -10 -24 15 -160 -131
-160 -171 0 -5 14 15 31 44 33 58 50 65 25 10 -12 -26 -14 -71 -13 -225 2
-126 -1 -193 -8 -193 -5 0 -3 -6 6 -13 9 -7 19 -25 23 -40 3 -15 11 -25 16
-22 6 4 7 -1 3 -11 -5 -13 -3 -15 7 -9 8 5 11 4 7 -2 -3 -5 5 -21 19 -36 29
-31 14 -36 -39 -13 -42 18 -75 55 -92 103 l-14 38 -1 -32 c0 -17 5 -35 11 -39
17 -10 3 -88 -25 -150 -13 -29 -44 -74 -68 -100 -23 -26 -34 -42 -23 -36 32
19 65 49 65 61 0 6 5 11 11 11 5 0 7 5 4 10 -3 5 -2 10 4 10 5 0 12 8 15 18 3
9 3 1 0 -20 -5 -40 -80 -189 -160 -318 -60 -98 -100 -200 -89 -227 5 -10 9
-24 11 -31 6 -31 14 -23 14 14 1 21 7 50 15 64 8 14 14 39 15 57 0 17 5 35 10
38 6 4 10 -6 10 -24 0 -22 8 -35 31 -51 41 -30 45 -21 9 17 -17 18 -30 40 -30
50 0 13 3 14 8 6 5 -8 8 1 8 22 0 21 9 46 22 62 13 16 44 70 69 122 45 92 113
181 138 181 18 0 12 -157 -7 -176 -11 -12 -13 -2 -12 64 1 42 0 61 -2 42 -14
-119 -15 -122 -61 -169 -61 -62 -93 -131 -93 -201 0 -45 6 -64 36 -113 19 -31
33 -63 31 -70 -3 -6 -10 0 -16 16 -6 15 -16 28 -23 28 -50 5 -124 -3 -143 -15
-22 -14 -23 -14 -29 9 -4 14 -5 26 -4 27 1 2 -5 12 -15 23 -9 11 -23 29 -32
40 -15 20 -15 20 -8 0 3 -11 -13 8 -36 43 -24 34 -52 67 -62 73 -11 5 -17 14
-14 19 3 4 -5 6 -16 3 -21 -6 -21 -7 5 -20 15 -8 24 -18 21 -23 -8 -12 -54 20
-55 38 0 17 -46 15 -83 -5 -18 -9 -35 -16 -39 -15 -5 1 -8 -7 -8 -19 0 -12 -4
-17 -11 -13 -8 5 -8 1 0 -14 16 -30 14 -39 -4 -16 -13 18 -14 16 -15 -23 0
-24 -7 -48 -16 -57 -19 -20 -9 -39 17 -31 13 5 19 2 19 -10 0 -9 5 -13 10 -10
6 3 10 -1 10 -9 0 -9 -3 -15 -7 -15 -5 1 -15 1 -23 0 -13 -1 -13 -3 -1 -10 8
-5 11 -16 8 -25 -6 -14 -14 -13 -63 14 -56 29 -104 39 -104 21 0 -5 17 -15 38
-21 20 -7 41 -16 46 -20 5 -5 15 -6 24 -3 10 4 13 2 8 -5 -4 -7 -25 -10 -56
-7 -28 3 -50 3 -50 0 0 -3 11 -28 25 -55 14 -27 34 -73 45 -101 l21 -51 -46
-49 c-206 -220 -122 -613 152 -720 43 -17 80 -23 145 -23 73 -1 90 -4 110 -22
37 -35 68 -46 119 -46 65 0 131 38 156 90 18 38 19 39 48 26 77 -32 173 -26
262 17 l43 21 30 -26 c17 -14 47 -30 68 -36 55 -15 339 -12 384 4 27 10 40 10
48 2 16 -16 384 -21 439 -6 50 13 109 63 127 107 44 104 -19 233 -121 250 -19
3 -35 7 -35 9 0 2 21 31 46 64 82 109 114 169 114 219 l0 46 52 20 c41 16 57
29 75 60 13 22 22 51 21 65 -1 24 -1 24 -5 2 -2 -12 -9 -20 -14 -17 -5 4 -9 1
-9 -5 0 -6 -5 -8 -12 -4 -8 5 -9 2 -5 -10 4 -9 3 -15 -2 -12 -10 6 -54 -38
-46 -46 3 -3 -6 -13 -21 -22 -14 -10 -27 -16 -28 -14 -1 2 -13 19 -27 38 -36
49 -41 75 -18 96 10 9 16 21 13 26 -4 6 3 7 17 3 23 -7 23 -6 5 7 -15 12 -16
17 -6 23 9 6 11 4 5 -6 -5 -8 -4 -11 1 -6 5 5 10 17 10 28 2 32 5 35 14 14 14
-32 11 -133 -4 -170 -13 -31 -13 -35 0 -35 8 0 12 4 9 10 -4 6 1 7 12 4 14 -4
15 -3 4 4 -17 12 -7 45 25 77 13 14 26 42 30 67 l7 43 13 -35 c8 -23 13 -28
13 -15 1 23 -22 130 -34 160 -6 14 -2 12 14 -7 63 -78 79 -188 39 -268 -18
-36 -34 -51 -78 -72 l-55 -27 38 -1 c55 0 103 23 122 60 23 45 28 117 12 178
-8 29 -10 55 -6 58 5 3 9 -1 9 -8 1 -7 15 16 33 52 27 55 32 76 32 138 0 39 3
72 7 72 4 0 20 -16 35 -37 24 -31 28 -46 28 -100 0 -60 -2 -67 -33 -94 -36
-33 -19 -40 21 -9 80 63 44 260 -66 354 -71 62 -97 87 -97 94 0 4 14 15 30 24
33 19 60 70 60 113 0 35 -25 82 -53 97 -69 38 -220 26 -337 -27 -76 -34 -116
-41 -153 -26 -16 6 -13 11 23 36 65 45 110 138 91 187 -9 22 -10 22 -11 -7 -1
-53 -53 -98 -127 -110 l-43 -7 0 40 c0 43 1 41 -101 131 -30 27 -56 63 -74
102 -15 33 -25 61 -23 63 1 1 16 6 33 12 33 10 53 50 40 80 -7 17 -8 17 -14
-6 -17 -63 -81 -16 -138 102 -78 160 -148 233 -270 284 -74 30 -192 32 -270 5z
m-73 -113 c0 -9 3 -9 9 1 16 25 58 -34 85 -117 41 -129 42 -151 6 -84 -12 20
-18 28 -14 17 4 -11 12 -36 19 -55 7 -19 15 -58 19 -86 5 -41 3 -51 -9 -51 -8
0 -15 5 -15 11 -1 14 -50 74 -50 61 0 -17 39 -75 68 -100 27 -25 48 -33 37
-16 -3 5 -9 30 -14 56 -8 45 -8 46 28 70 39 28 74 31 109 12 l23 -13 -26 -12
c-15 -7 -31 -10 -36 -6 -5 3 -8 2 -7 -3 1 -4 -9 -21 -24 -36 -17 -19 -24 -35
-20 -49 5 -19 6 -19 20 8 l15 29 11 -33 c14 -41 37 -55 76 -47 31 7 36 18 31
78 -2 18 2 27 11 25 29 -6 37 -105 12 -143 -19 -29 -14 -31 26 -10 35 18 50
43 50 82 -1 26 -2 26 -14 -10 -15 -42 -33 -67 -48 -67 -6 0 -5 7 2 15 8 10 11
36 8 75 l-4 60 53 0 53 0 0 -40 c0 -50 -20 -98 -50 -125 -19 -16 -22 -17 -17
-3 5 15 3 15 -29 2 -19 -8 -39 -12 -44 -9 -4 3 -19 1 -32 -4 -21 -9 -21 -10
-3 -12 11 -1 26 0 34 1 59 8 -13 -132 -92 -180 -28 -17 -32 -17 -92 0 -62 18
-98 33 -123 53 -11 8 -11 12 0 18 9 6 7 9 -9 9 -26 0 -80 87 -64 103 6 6 7 17
1 27 -5 9 -5 22 0 29 6 10 9 8 15 -8 7 -23 25 -29 26 -8 0 10 2 10 6 0 2 -7
13 -13 24 -13 21 0 26 -15 8 -26 -6 -3 -16 -1 -22 5 -17 17 -31 13 -17 -4 7
-8 9 -15 5 -15 -5 0 -6 -2 -3 -5 9 -10 58 18 58 32 0 20 -20 56 -39 70 -14 11
-14 12 -1 13 13 0 13 1 0 10 -9 5 -19 5 -25 0 -7 -6 -20 -3 -36 7 -22 15 -23
15 -11 1 11 -14 10 -21 -5 -44 l-18 -28 -6 34 c-4 27 -1 39 14 53 32 29 68 21
126 -28 54 -46 66 -52 76 -36 3 5 21 7 40 4 41 -7 48 11 9 21 -17 5 -35 1 -53
-10 -21 -14 -24 -14 -13 -2 11 13 9 17 -11 22 -47 11 -102 63 -137 127 -34 61
-35 68 -36 171 0 60 2 106 4 103 3 -3 11 4 19 15 16 23 33 26 33 8z m509 -72
c6 -4 11 -15 10 -24 0 -12 -2 -13 -6 -4 -4 9 -15 2 -38 -22 -18 -19 -35 -33
-39 -29 -11 11 -6 23 10 23 11 0 14 5 9 18 -20 47 -18 52 12 48 17 -1 35 -6
42 -10z m-121 -17 c23 -8 30 -15 27 -31 -5 -26 -6 -27 -35 -30 -19 -2 -25 2
-26 19 -1 12 -4 28 -7 37 -7 19 -1 20 41 5z m156 -104 c42 -50 44 -59 15 -50
-14 5 -19 3 -15 -3 3 -6 2 -14 -4 -17 -6 -4 -15 7 -21 24 -6 17 -14 29 -19 26
-8 -5 -30 38 -30 60 0 24 36 5 74 -40z m-336 -51 c2 -1 -66 -44 -71 -44 -1 0
-3 20 -3 44 l-1 44 36 -21 c20 -11 37 -21 39 -23z m-237 -116 c-14 -4 -26 -6
-28 -4 -6 5 -23 109 -23 135 1 20 10 8 38 -49 l37 -75 -24 -7z m669 32 c11 -8
7 -9 -15 -5 -26 5 -24 3 12 -14 30 -14 43 -27 47 -48 13 -56 65 -132 121 -173
30 -22 60 -50 66 -63 11 -21 11 -21 -7 -5 -24 21 -90 49 -122 53 -13 1 -29 8
-35 15 -9 10 -8 12 5 7 12 -4 7 7 -15 37 -18 24 -34 42 -36 40 -2 -2 2 -10 9
-19 7 -9 11 -18 8 -21 -11 -10 -67 67 -74 101 -3 19 -9 33 -13 30 -4 -2 -15
11 -24 30 -16 33 -15 34 6 38 39 8 52 7 67 -3z m-111 -42 c0 -29 -2 -30 -10
-13 -8 16 -8 15 -4 -8 3 -16 1 -35 -6 -43 -7 -8 -9 -17 -6 -20 8 -8 30 35 38
76 l6 35 14 -35 c32 -81 109 -230 119 -230 6 0 8 -6 4 -12 -4 -7 -4 -10 1 -6
4 4 23 -5 41 -21 73 -65 224 -81 293 -32 l34 24 -18 -26 c-9 -15 -20 -27 -24
-27 -4 0 -24 -16 -44 -35 -20 -19 -44 -35 -52 -35 -24 0 -17 15 13 26 23 8 18
10 -35 9 -72 0 -70 -9 14 -50 47 -23 77 -29 163 -35 108 -7 152 -21 198 -63
36 -33 26 -38 -18 -9 -29 19 -53 26 -83 25 -42 -1 -42 -1 -7 6 30 6 25 8 -43
15 -43 4 -81 5 -84 2 -4 -3 1 -6 9 -6 9 0 35 -9 59 -19 24 -10 67 -22 94 -26
28 -4 59 -12 70 -18 11 -6 25 -10 30 -8 7 1 7 -1 0 -7 -5 -6 -21 -12 -35 -15
-14 -2 4 -5 40 -5 36 0 74 3 85 8 13 6 6 7 -24 3 -40 -6 -60 4 -61 29 0 9 123
-3 134 -13 5 -4 -7 -18 -28 -30 -34 -20 -35 -22 -19 -36 16 -13 15 -14 -12
-10 -95 15 -160 30 -224 50 -40 13 -66 19 -59 12 7 -6 44 -38 81 -70 37 -32
66 -62 65 -67 -4 -12 -23 -11 -23 1 0 5 -4 13 -9 18 -5 5 -6 3 -2 -4 9 -17
-30 -18 -40 -1 -5 7 -10 4 -16 -11 -4 -13 -17 -25 -29 -28 -16 -4 -17 -8 -7
-14 10 -7 11 -9 0 -9 -7 0 -10 -4 -7 -10 3 -5 1 -10 -5 -10 -6 0 -8 -5 -4 -11
4 -8 14 2 25 24 10 19 27 38 38 42 23 7 74 -12 66 -25 -3 -5 -1 -10 4 -10 6 0
11 -8 12 -17 0 -10 3 -13 5 -6 3 7 0 21 -6 33 -6 11 -7 20 -3 19 23 -4 31 3
26 24 -5 18 -3 20 8 10 7 -7 24 -13 39 -13 17 0 -4 14 -68 46 -90 44 -118 69
-50 44 18 -6 77 -20 132 -30 97 -19 168 -50 197 -87 12 -16 12 -17 -1 -8 -9 6
-6 1 6 -10 22 -20 64 -84 64 -97 0 -11 -118 82 -124 97 -2 7 -26 27 -53 45
-45 30 -33 15 25 -30 22 -17 18 -17 -25 5 -74 35 -87 31 -23 -7 64 -38 100
-98 100 -163 l0 -40 -19 42 c-30 64 -96 131 -145 144 -73 20 -79 20 -71 1 11
-26 19 -108 10 -100 -5 4 -14 3 -22 -3 -9 -9 -13 -8 -13 0 0 9 -5 9 -20 1 -11
-6 -17 -16 -14 -25 4 -8 -7 -28 -25 -46 l-31 -31 26 -49 c15 -27 31 -49 37
-49 5 0 18 11 29 25 11 14 24 25 30 25 6 0 4 -8 -5 -18 -10 -10 -17 -23 -17
-28 0 -4 8 3 17 16 10 14 18 28 18 33 0 6 14 11 16 5 1 -6 -22 -64 -31 -78 -5
-8 -19 -31 -30 -50 -11 -19 -30 -48 -43 -63 -22 -26 -25 -27 -50 -14 -25 13
-26 16 -11 28 9 7 23 14 31 15 24 4 28 14 5 14 -11 0 -36 -8 -54 -19 -23 -13
-54 -19 -105 -20 -39 0 -75 -1 -80 -2 -35 -6 -143 3 -143 12 0 6 8 13 18 16
10 2 23 19 28 36 5 18 15 31 22 29 10 -2 10 2 1 19 -17 32 -6 117 19 141 26
26 47 18 61 -24 10 -31 10 -32 -5 -13 -17 20 -17 20 -9 0 4 -11 10 -47 13 -81
4 -55 2 -63 -22 -87 -21 -21 -23 -26 -8 -26 9 0 33 -1 52 -1 59 -2 116 19 129
47 7 15 8 30 3 37 -14 17 -23 48 -13 42 5 -3 12 2 15 11 8 20 -12 35 -36 27
-10 -3 -18 -1 -18 5 0 6 -7 8 -15 5 -20 -8 -79 52 -71 72 3 8 2 12 -4 9 -6 -3
-10 -2 -10 2 0 5 18 14 40 20 40 10 40 10 38 -17 -1 -15 6 -39 15 -54 21 -32
32 -34 17 -3 l-11 22 20 -23 20 -23 3 25 c3 22 5 23 21 11 15 -10 16 -18 8
-33 -6 -11 -7 -23 -3 -27 4 -3 7 -17 7 -30 1 -19 -2 -22 -12 -13 -15 12 -17 0
-3 -22 7 -12 12 -11 32 5 13 11 26 24 29 29 11 14 -20 78 -48 99 -14 11 -32
34 -39 51 l-15 31 6 -42 c6 -38 5 -41 -14 -36 -25 6 -29 49 -7 78 7 10 12 31
10 47 -3 22 0 28 15 28 13 0 23 11 31 35 7 21 16 32 22 29 6 -4 9 -3 5 2 -3 5
1 18 8 28 11 14 21 17 42 12 21 -5 24 -4 13 4 -8 5 -21 10 -28 10 -7 0 -26 10
-42 21 -16 13 -37 20 -49 16 -13 -3 -29 5 -48 25 -15 16 -37 34 -48 40 -11 6
-3 -7 18 -29 29 -30 35 -42 24 -46 -8 -3 -18 -2 -23 2 -5 5 -31 17 -58 26 -26
10 -74 41 -105 69 l-56 50 45 -47 c24 -26 41 -47 37 -47 -10 0 -85 38 -122 62
l-30 20 30 -26 c44 -38 109 -68 131 -60 10 4 16 3 11 -1 -4 -5 9 -16 29 -24
35 -16 36 -18 20 -34 -16 -15 -20 -15 -54 -2 -64 27 -182 126 -182 152 0 8
-13 22 -30 31 -16 9 -30 21 -30 25 0 5 6 5 13 1 6 -4 4 1 -5 12 -10 11 -33 53
-52 94 -20 41 -35 68 -36 60 0 -8 -3 -10 -9 -5 -5 6 -6 28 -2 50 l7 40 19 -30
c53 -82 210 -235 242 -235 4 0 30 -11 58 -25 27 -13 88 -40 134 -59 66 -28 79
-31 62 -15 -12 11 -52 31 -89 43 -123 43 -242 111 -146 84 54 -14 52 -3 -3 17
-67 25 -135 56 -130 61 2 3 16 0 31 -5 14 -6 26 -9 26 -7 0 7 -88 65 -94 61
-3 -3 -4 -2 -2 1 3 3 -18 33 -45 67 -51 63 -56 78 -39 121 5 14 7 26 5 26 -3
0 -10 -12 -16 -27 l-11 -28 -25 29 c-17 20 -23 35 -18 50 4 12 6 38 5 59 0 27
3 37 15 37 10 0 15 -10 14 -32z m-199 -28 c0 -22 -34 -44 -55 -36 -8 3 -19 15
-25 27 -11 19 -10 21 6 17 11 -3 27 -9 37 -13 13 -6 16 -3 11 9 -4 11 -1 16
10 16 9 0 16 -8 16 -20z m-517 -93 c-6 -41 -62 -137 -79 -137 -20 0 -18 6 16
62 29 47 30 49 6 31 -13 -10 -22 -21 -19 -25 2 -5 0 -8 -6 -8 -6 0 -18 -25
-26 -55 -18 -59 -29 -69 -39 -32 -17 64 16 129 96 187 46 34 59 28 51 -23z
m710 -80 c-5 -45 -13 -58 -64 -111 -65 -68 -87 -113 -69 -146 6 -11 8 -20 4
-20 -3 0 -2 -6 4 -12 6 -7 13 -30 17 -50 7 -36 5 -38 -29 -54 -20 -10 -37 -16
-39 -13 -6 7 -49 183 -54 219 -4 30 4 48 50 117 36 54 51 86 46 95 -25 39 11
38 45 -2 21 -26 24 -35 15 -57 -8 -23 -8 -24 6 -13 21 17 19 40 -7 67 -16 17
-19 26 -10 35 8 8 15 2 28 -25 29 -61 44 -23 18 48 -6 18 -5 18 19 -4 23 -21
25 -28 20 -74z m155 22 c-2 -4 4 -15 13 -25 9 -11 22 -30 29 -44 l13 -25 -28
25 c-15 14 -34 38 -42 53 -13 26 -13 28 2 25 9 -1 15 -6 13 -9z m114 -68 c45
-19 78 -45 78 -62 0 -30 -106 14 -126 52 -17 34 -11 35 48 10z m-838 -62 c-8
-16 -14 -39 -14 -52 0 -15 -7 -27 -17 -30 -10 -2 -26 -8 -35 -12 -25 -10 -24
33 3 94 20 47 21 48 49 38 27 -10 28 -12 14 -38z m589 -18 c48 -88 29 -139
-64 -172 -30 -11 -41 -17 -24 -13 29 5 29 5 11 -15 -24 -26 -32 -26 -39 -1 -5
21 12 40 40 44 21 3 53 60 53 96 0 14 -7 38 -15 54 -16 29 -14 56 3 56 5 0 21
-22 35 -49z m-500 15 c44 -36 33 -60 -27 -64 l-48 -3 7 38 c11 62 22 67 68 29z
m451 -38 c3 -13 6 -33 6 -46 0 -20 -3 -21 -20 -12 -14 8 -20 21 -20 45 0 40
24 49 34 13z m-309 -25 c-3 -10 -11 -43 -16 -73 -16 -91 -19 -100 -33 -100
-12 0 -48 25 -108 75 -11 9 -18 29 -18 48 0 30 3 33 34 35 19 1 52 9 73 17 55
20 77 19 68 -2z m90 -10 c3 -14 5 -26 3 -27 -2 -1 -16 -10 -31 -19 -15 -10
-32 -15 -37 -12 -6 3 -7 -1 -4 -9 4 -11 0 -16 -10 -16 -19 0 -20 17 -4 68 10
32 16 37 44 39 27 1 33 -3 39 -24z m1137 7 c50 -14 55 -26 9 -22 -40 4 -141
-32 -141 -50 0 -5 -5 -6 -12 -2 -6 4 -8 3 -5 -3 4 -6 0 -16 -7 -22 -9 -8 -17
-8 -20 -2 -3 5 -1 11 4 13 6 2 -7 4 -30 4 -47 2 -61 11 -40 25 12 9 10 9 -5 3
-11 -4 -38 -9 -60 -11 l-40 -3 61 30 c94 46 206 62 286 40z m-959 -33 l39 -23
-37 -33 c-21 -18 -38 -31 -40 -29 -7 9 -15 108 -8 108 4 0 25 -11 46 -23z
m-453 -29 c0 -21 -4 -38 -9 -38 -13 0 -21 -133 -8 -148 8 -10 7 -16 -4 -23 -8
-5 -17 -9 -20 -9 -12 0 -19 62 -19 161 l0 98 30 -1 c28 -1 30 -4 30 -40z
m1460 2 c26 -26 25 -52 -4 -79 -22 -21 -30 -22 -95 -15 -112 11 -118 39 -18
89 61 30 90 32 117 5z m-1160 -32 c6 -24 13 -48 15 -54 2 -8 -10 -10 -38 -7
-26 3 -55 -1 -77 -11 l-35 -16 35 6 c40 7 36 7 73 5 22 -1 27 -6 27 -27 0 -41
-40 -89 -78 -92 -42 -3 -96 24 -88 44 3 9 6 18 6 20 0 2 12 1 26 -2 17 -4 25
-3 21 3 -4 6 5 15 20 22 35 16 22 26 -17 13 -18 -7 -28 -7 -25 -2 4 6 1 10 -5
10 -18 0 42 81 79 106 20 13 39 24 43 24 4 0 12 -19 18 -42z m317 -8 c60 -36
68 -60 70 -205 1 -71 3 -165 5 -207 4 -80 -2 -92 -32 -65 -8 6 -3 -2 13 -19
28 -31 36 -69 16 -76 -9 -3 -9 -9 0 -25 20 -38 12 -57 -49 -122 -53 -58 -62
-63 -89 -58 -19 4 -35 1 -43 -7 -16 -16 -72 -31 -64 -17 4 5 22 15 41 21 l36
12 -32 36 c-44 49 -71 116 -75 182 -2 30 -10 88 -17 128 l-13 72 23 0 c13 0
40 7 60 15 20 8 37 14 38 13 1 -2 9 -24 19 -51 10 -26 24 -53 31 -60 22 -22
46 -77 39 -89 -5 -7 -3 -8 6 -3 10 6 12 4 7 -9 -4 -9 -3 -15 2 -12 5 3 9 -13
9 -35 1 -47 7 -58 24 -41 10 10 9 24 -5 63 -10 28 -16 53 -14 55 2 3 16 -9 31
-26 27 -33 33 -32 16 1 -6 10 -23 25 -38 33 -16 9 -42 42 -64 84 l-37 69 39
29 c22 16 40 33 40 38 0 5 -10 1 -22 -10 -56 -49 -57 -49 -72 -13 -29 71 -29
74 13 126 21 27 53 56 70 63 18 7 30 15 27 17 -7 8 -84 -36 -98 -56 -7 -10
-17 -20 -23 -22 -5 -2 -10 -10 -12 -17 -2 -18 -13 -29 -13 -14 0 6 -4 22 -10
36 -9 24 -10 25 -41 9 -47 -23 -75 -24 -76 -3 -2 18 71 59 84 47 3 -4 -14 -16
-38 -27 -24 -11 -33 -17 -19 -13 14 3 34 7 45 8 16 1 20 9 20 36 0 30 6 38 50
66 28 18 57 39 65 47 20 19 20 19 57 -4z m-565 -36 c39 -27 49 -40 24 -31 -10
4 -13 1 -9 -9 4 -10 -3 -14 -23 -15 l-29 -1 25 -11 c14 -7 26 -20 28 -29 2
-14 -4 -18 -29 -18 -23 0 -30 4 -26 14 3 8 -1 17 -9 20 -18 7 -20 106 -2 106
7 0 29 -12 50 -26z m91 -50 c11 -11 -25 -54 -44 -54 -22 0 -26 29 -7 48 13 13
41 16 51 6z m603 -34 c19 -16 34 -32 34 -35 0 -3 2 -4 4 -2 6 3 51 -57 48 -65
-1 -5 15 1 35 12 22 11 57 20 83 20 25 0 64 7 88 15 60 21 106 -3 67 -35 -8
-7 -15 -18 -15 -24 0 -7 -6 -18 -12 -24 -7 -7 -13 -18 -13 -25 0 -8 -25 -11
-80 -10 -59 0 -85 -3 -97 -15 -20 -17 -24 -62 -7 -62 6 0 8 7 5 16 -4 10 -2
14 6 11 7 -2 25 7 40 21 30 28 58 24 58 -8 0 -12 5 -30 10 -41 10 -17 7 -19
-24 -19 -19 0 -38 -5 -42 -11 -3 -6 -22 -17 -40 -25 -42 -18 -58 -49 -74 -149
-9 -55 -19 -84 -32 -93 -10 -7 -18 -19 -18 -26 0 -18 -92 -48 -104 -35 -6 5 3
22 24 44 30 31 33 38 24 63 -6 15 -7 38 -4 52 4 14 4 33 0 44 -3 10 -3 46 1
79 4 34 4 66 1 72 -7 10 -10 285 -3 285 2 0 19 -13 37 -30z m-806 -84 c-16
-16 -12 -33 10 -39 16 -4 20 -14 20 -52 0 -27 4 -44 10 -40 5 3 17 -9 26 -27
9 -18 18 -35 20 -37 2 -2 22 8 44 23 22 15 45 24 50 21 6 -3 10 -1 10 6 0 23
33 49 62 49 20 0 28 5 28 18 0 10 24 32 59 53 l58 36 12 -66 c54 -315 54 -315
11 -381 -6 -8 -14 -27 -20 -42 -7 -21 -16 -28 -35 -28 -14 0 -41 -6 -59 -14
-30 -12 -40 -12 -78 1 -24 8 -58 12 -78 9 -28 -4 -49 2 -110 36 -41 22 -91 53
-110 67 -19 14 -36 25 -36 26 -1 0 -5 11 -9 25 -7 23 -7 24 10 10 10 -8 1 7
-19 35 -48 62 -57 87 -58 152 -1 72 31 131 105 198 l62 55 12 -42 c9 -28 10
-45 3 -52z m399 32 c1 -4 -27 -26 -61 -48 l-63 -40 -22 28 c-25 30 -31 19 -8
-12 21 -28 19 -36 -9 -36 -14 0 -32 -10 -40 -22 l-16 -22 -1 24 c-2 34 2 114
6 119 2 1 10 -1 17 -5 7 -5 15 -9 18 -9 3 -1 25 -8 49 -15 48 -15 42 -19 95
56 18 26 20 26 27 8 4 -10 8 -22 8 -26z m-269 1 c0 -4 -7 -12 -16 -20 -8 -7
-24 -30 -35 -51 -21 -41 -39 -50 -39 -19 0 11 -7 26 -15 35 -20 20 -19 24 14
44 28 17 91 24 91 11z m30 -58 c0 -63 -2 -70 -26 -86 l-27 -17 9 38 c4 22 8
51 7 67 0 15 4 27 10 27 6 0 7 3 4 7 -6 5 10 33 19 33 2 0 4 -31 4 -69z m378
-3 c20 -55 21 -63 7 -77 -19 -19 -29 -9 -45 52 -7 26 -15 46 -17 43 -4 -4 11
-69 24 -102 3 -8 0 -14 -6 -14 -6 0 -17 21 -25 48 -8 26 -15 40 -15 31 -1 -9
4 -30 10 -48 12 -34 4 -55 -11 -31 -9 13 -10 13 -10 0 0 -24 -20 10 -20 35 0
17 2 17 10 5 6 -9 10 -10 10 -3 0 7 -6 16 -14 20 -7 4 -15 22 -18 40 -4 30 -2
33 36 46 61 21 60 22 84 -45z m-430 -42 c-13 -48 -22 -57 -32 -31 -5 14 32 90
41 82 2 -2 -2 -25 -9 -51z m-888 14 c0 -6 9 -14 20 -18 19 -7 16 -11 -24 -39
-82 -58 -166 -192 -166 -266 0 -12 -4 -28 -9 -35 -12 -19 -21 19 -21 88 0 89
46 173 132 241 51 40 68 47 68 29z m2207 -62 c75 -51 122 -168 91 -227 -19
-36 -31 -35 -53 5 -11 20 -39 52 -63 72 -37 30 -42 39 -37 63 4 15 0 43 -9 63
-8 20 -11 36 -5 36 5 0 9 4 9 10 0 5 -8 7 -17 4 -14 -5 -15 -4 -4 4 17 12 34
7 88 -30z m-1979 2 c31 -19 36 -28 33 -60 -2 -13 -1 -13 9 0 10 13 11 13 7 0
-2 -8 -10 -16 -18 -18 -19 -3 -72 45 -64 57 3 5 1 12 -4 16 -18 10 -2 -40 17
-55 16 -13 17 -18 5 -29 -12 -11 -12 -16 4 -33 10 -11 19 -15 21 -9 2 6 8 9
13 5 5 -3 9 1 9 8 0 8 9 20 19 28 11 7 18 17 15 21 -2 4 1 11 7 15 8 4 9 3 5
-4 -4 -7 -3 -12 3 -12 13 0 23 -33 15 -54 -10 -26 -27 -19 -20 9 4 14 2 25 -3
25 -5 0 -11 -11 -13 -25 -3 -14 -1 -25 3 -25 18 0 8 -21 -27 -60 -54 -59 -94
-52 -137 23 -18 34 -23 56 -22 98 3 71 3 71 16 64 6 -4 13 2 16 14 7 27 47 28
91 1z m685 -15 c44 18 49 7 10 -21 -49 -36 -51 -36 -68 -5 -20 40 -19 61 3 33
17 -22 19 -22 55 -7z m959 -10 c6 -27 0 -38 -13 -29 -12 7 -12 54 0 54 5 0 11
-11 13 -25z m256 -63 c-3 -27 0 -40 14 -52 18 -15 17 -17 -26 -47 -56 -39 -75
-24 -25 19 19 16 30 28 24 25 -6 -3 -11 11 -12 31 -1 26 1 32 8 22 7 -12 9
-11 7 5 -2 33 3 62 9 47 3 -7 3 -30 1 -50z m-37 4 c-8 -10 -9 -16 -1 -21 5 -3
10 -11 10 -18 0 -6 -6 -3 -13 8 -8 10 -19 15 -25 11 -6 -3 -9 1 -8 11 2 10 8
18 14 18 6 0 14 3 18 8 13 13 17 -2 5 -17z m-11 -40 c0 -7 -11 -25 -25 -40
-14 -15 -25 -32 -25 -38 0 -7 6 -4 13 7 13 16 14 15 9 -13 -6 -42 -18 -40 -39
4 l-18 36 33 29 c35 32 52 37 52 15z m-1696 -11 c-4 8 -4 15 0 15 9 0 38 -61
32 -67 -3 -3 -8 2 -12 11 -3 9 -10 16 -15 16 -4 0 -6 -6 -3 -14 4 -9 -4 -15
-25 -18 -36 -5 -46 11 -29 47 11 24 13 24 34 10 21 -13 23 -13 18 0z m1483
-121 c-1 10 4 21 12 24 10 3 11 -2 6 -18 -4 -14 -3 -20 3 -16 14 8 21 -28 10
-48 -5 -9 -27 -19 -48 -22 -22 -4 -37 -10 -34 -15 3 -5 -8 -9 -24 -9 -25 0
-29 3 -25 20 3 11 8 20 12 20 6 0 7 10 11 89 l2 43 38 -43 c27 -31 38 -38 37
-25z m-1533 32 c9 3 16 1 16 -5 0 -6 -4 -11 -10 -11 -5 0 -10 -22 -10 -49 0
-39 -5 -53 -21 -64 -11 -9 -16 -18 -11 -21 6 -3 19 5 30 19 l20 25 6 -23 c11
-42 9 -46 -31 -35 -21 5 -46 10 -55 11 -10 1 -18 1 -18 2 0 0 11 27 25 60 30
72 32 102 5 58 -11 -18 -27 -33 -35 -33 -22 0 -18 36 8 63 19 20 25 21 43 10
12 -8 29 -11 38 -7z m284 0 c2 -11 13 -27 24 -35 18 -15 17 -16 -29 -14 -46 2
-46 1 11 -7 61 -10 90 -25 79 -43 -3 -5 -2 -7 4 -4 6 4 32 -8 59 -25 27 -17
53 -31 59 -32 5 -1 20 -6 32 -10 l23 -7 -28 -24 -28 -24 -59 30 c-63 31 -91
34 -145 15 -30 -11 -42 -10 -85 7 -54 21 -115 79 -115 109 0 55 44 83 132 83
54 0 63 -3 66 -19z m1569 -46 c5 -63 -9 -121 -32 -140 -11 -9 -12 -7 -8 10 3
11 0 47 -7 80 -12 55 -11 60 10 90 12 17 25 29 28 26 3 -3 7 -33 9 -66z
m-2077 10 c-14 -33 -30 -40 -30 -13 0 18 30 56 38 48 3 -2 -1 -18 -8 -35z
m288 26 c9 -5 11 -17 7 -33 -4 -18 1 -36 18 -62 13 -20 26 -53 30 -73 l6 -37
-43 20 c-41 21 -42 22 -54 95 -15 96 -7 117 36 90z m-331 -42 c3 -9 0 -20 -8
-25 -24 -15 -35 -9 -14 8 20 16 16 16 -31 -4 -14 -5 -13 -2 2 15 22 26 42 28
51 6z m154 -46 c1 -49 2 -50 9 -19 7 29 28 56 38 47 1 -2 -5 -22 -14 -45 -10
-26 -22 -40 -29 -37 -7 2 -16 2 -19 -2 -4 -3 -13 -7 -21 -8 -11 -2 -13 4 -9
21 4 17 0 24 -17 28 -26 7 -47 -2 -30 -12 6 -4 12 -17 13 -29 3 -18 -8 -27
-59 -51 -65 -31 -73 -31 -73 3 0 12 -11 45 -25 74 -28 60 -24 63 57 32 59 -22
89 -26 43 -6 -25 11 -27 15 -13 21 9 4 24 2 34 -3 12 -7 28 -3 58 14 22 13 44
24 49 24 4 0 7 -24 8 -52z m1059 -52 c19 -19 10 -24 -37 -18 -27 2 -49 6 -51
7 -6 5 20 61 36 78 15 17 17 16 29 -20 8 -20 18 -42 23 -47z m-738 -41 c26
-10 27 -13 13 -25 -13 -11 -19 -10 -38 7 -12 11 -29 23 -37 27 -8 4 2 -8 23
-27 22 -20 34 -38 28 -41 -15 -10 -58 21 -64 46 -11 41 3 44 75 13z m1293 -5
c15 -6 43 -7 63 -4 60 9 113 -16 142 -67 23 -38 25 -50 19 -97 -7 -49 -51
-134 -108 -207 -38 -49 -43 -65 -26 -91 9 -13 34 -32 56 -40 75 -31 108 -118
74 -194 -10 -22 -21 -40 -25 -40 -3 0 -17 -10 -30 -22 -24 -22 -30 -23 -230
-22 -113 0 -232 0 -265 0 -419 -2 -398 -3 -441 25 -59 38 -72 41 -112 20 -63
-32 -138 -41 -216 -26 -67 13 -71 12 -97 -8 -15 -12 -32 -31 -37 -43 -6 -12
-31 -31 -57 -43 -54 -25 -92 -19 -149 24 -32 24 -45 27 -128 29 -81 2 -101 6
-159 34 -144 69 -224 214 -213 386 8 119 46 207 128 294 62 66 121 93 209 93
40 0 86 -3 102 -6 39 -9 155 -67 155 -77 0 -19 40 -5 76 27 21 19 44 36 49 36
52 8 87 4 134 -14 76 -29 80 -29 115 -4 17 12 34 22 38 22 3 0 9 3 12 6 8 8
73 1 109 -11 20 -7 43 -4 89 11 34 10 63 17 65 15 3 -3 0 -13 -6 -23 -6 -10
-11 -15 -11 -10 0 10 -67 -19 -86 -38 -21 -20 -33 -19 -61 7 -43 40 -120 22
-160 -38 -14 -23 -17 -51 -15 -198 2 -185 -2 -226 -23 -226 -22 0 -25 26 -25
220 l0 189 -30 34 c-69 79 -188 36 -192 -68 -2 -49 -13 -52 -46 -14 -44 53
-63 68 -126 99 -47 24 -72 30 -124 30 -73 0 -134 -15 -174 -42 -14 -10 -30
-18 -35 -18 -13 0 -66 -59 -92 -103 -87 -145 -59 -376 59 -485 55 -50 61 -54
113 -74 39 -14 73 -18 135 -16 75 2 86 0 109 -20 43 -38 83 -54 117 -48 17 4
37 7 44 8 6 1 12 5 12 10 0 4 9 17 20 28 29 29 26 85 -6 131 -25 37 -29 69 -8
76 6 2 15 -7 21 -20 67 -147 289 -183 402 -64 41 43 51 46 51 14 0 -12 13 -38
29 -57 l29 -35 191 0 c165 0 192 2 207 17 16 16 19 16 55 -3 34 -17 59 -19
226 -19 203 1 208 2 245 57 34 53 15 118 -43 149 -17 8 -57 14 -99 14 l-71 0
37 58 c20 31 46 69 58 83 11 14 28 36 36 49 8 12 28 41 44 63 71 101 61 188
-27 234 -22 11 -64 13 -200 11 -149 -3 -176 -6 -205 -23 -25 -15 -36 -17 -50
-9 -26 17 -20 37 13 46 17 5 50 15 75 23 50 15 201 12 245 -5z m-510 -10 c18
-20 17 -20 -9 -20 -19 0 -32 -9 -46 -32 -19 -32 -20 -32 -21 -8 0 23 -1 23 -9
5 -8 -18 -9 -18 -10 5 0 22 -2 23 -11 8 -5 -10 -18 -18 -27 -18 -11 0 -13 3
-6 8 6 4 17 18 23 30 7 13 15 21 18 19 2 -3 19 1 36 8 41 18 41 18 62 -5z
m-959 -77 c69 -23 144 -101 173 -178 19 -50 22 -76 19 -155 -2 -82 -7 -104
-31 -150 l-28 -53 36 -37 c43 -44 47 -89 10 -125 -38 -39 -77 -33 -134 20 -44
41 -51 44 -75 35 -15 -5 -51 -10 -80 -10 -195 0 -334 188 -296 401 21 117 99
219 193 253 57 20 153 20 213 -1z m359 -6 l27 -23 1 -208 c2 -193 3 -209 21
-222 26 -19 55 -18 78 3 16 15 18 35 18 215 l0 200 29 29 c16 16 36 29 45 29
28 0 64 -22 75 -47 14 -31 15 -395 0 -446 -44 -161 -285 -198 -384 -58 l-30
43 -3 215 c-4 228 1 262 41 281 34 16 54 14 82 -11z m495 6 c0 -15 39 -13 65
4 12 8 49 13 93 13 69 0 76 -2 104 -30 44 -45 34 -78 -49 -162 -57 -58 -64
-68 -45 -68 32 0 72 -43 72 -78 0 -19 -16 -48 -50 -90 -27 -34 -50 -64 -50
-67 0 -3 22 -3 49 1 44 6 52 4 75 -19 34 -34 34 -79 1 -112 -24 -25 -27 -25
-195 -25 -168 0 -171 0 -195 25 l-25 24 0 271 c0 173 4 279 11 291 6 11 20 24
32 29 31 12 107 8 107 -7z m756 -16 c42 -49 34 -70 -92 -253 -64 -93 -123
-176 -130 -185 -8 -8 -14 -18 -14 -22 0 -3 44 -4 98 -1 56 3 109 1 125 -5 51
-20 60 -88 17 -131 -19 -19 -34 -20 -210 -20 l-191 0 -26 26 c-43 43 -31 77
105 274 l120 175 -105 5 c-95 5 -107 7 -124 29 -28 35 -24 77 11 112 l30 30
181 -3 181 -3 24 -28z m-428 -149 c7 -7 43 -15 79 -18 37 -3 68 -10 70 -16 4
-11 -126 -212 -163 -253 -22 -23 -22 -23 -55 -5 -19 11 -35 20 -37 21 -5 2 21
47 31 54 5 3 11 24 14 46 4 31 0 48 -20 80 l-25 40 31 32 c34 33 55 39 75 19z"/>
<path d="M1220 2633 c0 -22 11 -37 27 -40 14 -3 6 25 -14 45 -11 11 -13 10
-13 -5z"/>
<path d="M1277 2602 c19 -35 43 -61 43 -46 0 5 -14 25 -31 44 l-31 35 19 -33z"/>
<path d="M1242 2538 c2 -5 7 -9 11 -9 4 1 19 1 34 1 14 0 23 3 19 7 -11 11
-67 12 -64 1z"/>
<path d="M2423 1543 c-18 -9 -33 -20 -33 -25 0 -4 -5 -8 -11 -8 -5 0 -7 6 -3
13 6 9 5 9 -8 0 -8 -7 -18 -10 -21 -6 -11 10 -37 -18 -36 -41 0 -20 1 -20 9 2
7 17 16 22 36 19 14 -2 30 -10 35 -18 8 -12 10 -12 18 1 6 9 6 19 1 26 -6 6
-7 14 -3 18 4 4 13 -4 21 -16 7 -13 11 -15 8 -5 -3 9 -1 17 4 17 6 0 10 -11
10 -25 0 -14 5 -25 11 -25 5 0 7 5 4 11 -4 6 -7 26 -7 45 0 19 -1 34 -1 33 -1
0 -17 -8 -34 -16z"/>
<path d="M2370 1441 c0 -5 -3 -18 -6 -28 -5 -15 -4 -15 5 -3 8 12 11 12 17 -3
5 -14 9 -15 20 -6 12 10 12 15 -2 30 -18 20 -34 25 -34 10z"/>
<path d="M2433 1238 c-2 -5 -16 -8 -31 -8 -21 0 -24 -2 -12 -10 10 -6 22 -5
36 5 14 9 25 10 31 4 6 -6 14 -5 21 3 8 10 5 13 -15 13 -14 0 -27 -3 -30 -7z"/>
<path d="M2440 1199 c23 -8 22 -8 -8 -5 -20 1 -29 -1 -23 -7 12 -12 53 -5 59
11 2 8 -6 12 -25 11 l-28 -1 25 -9z"/>
<path d="M1285 1880 c11 -17 86 -51 103 -47 12 3 9 7 -13 16 -16 7 -43 19 -59
27 -34 17 -39 17 -31 4z"/>
<path d="M1797 1810 c-26 -16 -51 -30 -56 -30 -15 0 -43 -38 -33 -44 6 -3 12
-2 14 2 1 5 34 30 73 55 76 51 78 65 2 17z"/>
<path d="M1760 1738 c-16 -22 -30 -46 -30 -51 0 -12 -1 -14 39 46 39 58 32 63
-9 5z"/>
<path d="M1820 1658 c-15 -20 -25 -49 -27 -73 l-2 -40 23 50 c25 54 40 95 34
95 -3 0 -15 -15 -28 -32z"/>
<path d="M1855 1485 c-34 -11 -37 -14 -20 -20 83 -29 84 -30 63 -55 -7 -8 -3
-6 10 4 27 24 28 32 1 39 -16 4 -19 11 -14 26 3 12 5 21 3 20 -2 -1 -21 -7
-43 -14z"/>
<path d="M1690 1247 c0 -14 39 -81 65 -112 18 -21 24 -24 19 -10 -4 11 -15 29
-24 40 -10 11 -27 36 -39 55 -11 19 -21 31 -21 27z"/>
<path d="M1983 1643 c0 -10 11 -30 25 -46 18 -19 26 -39 27 -67 1 -37 26 -80
47 -80 5 0 7 14 3 30 -6 29 8 43 18 18 3 -7 6 2 6 19 1 44 41 71 81 56 15 -6
33 -7 40 -3 8 5 -5 14 -34 25 -43 16 -47 17 -71 1 -37 -24 -67 -76 -60 -104 4
-15 2 -21 -5 -17 -15 10 -12 78 6 103 17 25 8 31 -10 7 -10 -14 -16 -9 -40 30
-16 25 -30 45 -31 45 -1 0 -2 -8 -2 -17z"/>
<path d="M2013 1310 c0 -41 2 -58 4 -37 2 20 2 54 0 75 -2 20 -4 3 -4 -38z"/>
<path d="M1037 1442 c19 -17 138 -49 301 -81 119 -24 236 -9 272 34 12 14 6
13 -30 -6 -36 -19 -60 -23 -115 -23 -75 1 -344 53 -410 79 -39 15 -40 15 -18
-3z"/>
<path d="M1545 1229 c-29 -11 -70 -18 -97 -16 -25 1 -44 -1 -41 -5 13 -22 172
6 189 33 3 5 4 8 2 8 -2 -1 -25 -10 -53 -20z"/>
<path d="M557 1493 c-13 -12 -7 -25 8 -19 18 6 19 2 4 -26 -9 -16 -7 -24 12
-44 33 -35 44 -29 20 10 -25 41 -27 53 -4 35 11 -9 10 -3 -6 19 -24 35 -25 35
-34 25z"/>
<path d="M524 1399 c0 -10 4 -19 8 -19 4 0 8 -7 8 -15 0 -8 4 -15 9 -15 5 0 8
13 7 29 0 16 -3 28 -5 25 -2 -2 -9 0 -15 6 -8 6 -12 3 -12 -11z"/>
<path d="M631 1346 c-8 -9 -20 -15 -28 -12 -18 7 -17 -9 3 -24 12 -11 18 -11
30 2 9 9 14 24 12 33 -3 17 -4 17 -17 1z"/>
<path d="M857 1255 c-21 -20 -22 -36 -3 -29 8 3 25 -6 39 -20 15 -14 32 -26
39 -26 7 1 1 11 -14 23 -15 12 -31 33 -36 46 -8 22 -9 22 -25 6z"/>
<path d="M961 1194 c17 -20 67 -46 81 -42 6 2 -9 16 -35 31 -52 31 -65 34 -46
11z"/>
<path d="M499 929 c-32 -30 -34 -33 -8 -13 20 16 44 34 55 41 10 6 14 12 8 12
-6 1 -31 -17 -55 -40z"/>
<path d="M589 833 c-41 -35 -59 -79 -59 -145 0 -67 31 -131 76 -159 47 -29 54
-18 15 26 -39 44 -41 86 -6 120 41 42 96 27 149 -41 27 -34 30 -35 37 -18 13
32 10 123 -5 157 -35 86 -140 116 -207 60z m114 -15 c34 -17 56 -47 63 -85 8
-45 1 -50 -34 -24 -37 26 -89 27 -122 1 -14 -11 -29 -20 -34 -20 -14 0 1 81
19 99 12 12 56 34 83 40 2 1 13 -4 25 -11z"/>
<path d="M885 655 c-27 -13 -44 -24 -37 -24 19 -1 78 25 86 38 9 13 12 14 -49
-14z"/>
<path d="M420 630 c8 -5 31 -9 50 -9 l35 1 -30 8 c-16 4 -39 8 -50 9 -16 1
-17 -1 -5 -9z"/>
<path d="M1655 870 l-40 -5 -1 -158 -1 -158 43 48 c24 26 43 50 43 53 0 3 -14
14 -32 25 -26 17 -33 28 -35 61 -3 34 3 49 33 89 20 26 35 48 33 49 -2 1 -21
-1 -43 -4z"/>
<path d="M2130 680 c-12 -8 -10 -10 10 -9 14 0 34 4 45 9 17 7 16 9 -10 9 -16
0 -37 -4 -45 -9z"/>
<path d="M1515 2756 c28 -7 72 -25 99 -39 57 -31 74 -30 23 2 -45 28 -113 51
-146 50 -17 0 -9 -5 24 -13z"/>
<path d="M1435 2633 c19 -18 90 -70 120 -88 25 -15 23 -12 -10 18 -22 21 -58
47 -80 58 -22 12 -35 17 -30 12z"/>
<path d="M1977 2610 c-3 -11 -16 -24 -28 -29 l-24 -8 22 -7 c12 -4 25 -16 28
-27 7 -23 25 -26 25 -4 0 9 12 21 26 27 25 12 25 12 4 20 -12 4 -24 17 -27 28
-3 11 -9 20 -13 20 -4 0 -10 -9 -13 -20z"/>
<path d="M939 2576 c-16 -20 -15 -22 5 -32 16 -7 25 -5 39 8 13 14 14 18 2 18
-7 0 -18 6 -22 14 -6 11 -11 10 -24 -8z"/>
<path d="M843 2473 c-22 -22 -22 -23 -3 -33 11 -6 20 -18 20 -26 0 -11 9 -7
29 13 25 24 27 29 12 37 -9 5 -20 15 -26 21 -7 8 -16 5 -32 -12z"/>
<path d="M2111 2458 c-43 -103 -55 -149 -45 -166 17 -26 191 -87 208 -73 23
19 80 191 67 204 -6 6 -11 21 -11 34 0 30 -24 40 -55 23 -20 -11 -31 -10 -65
4 -64 25 -78 22 -99 -26z m111 5 c55 -20 68 -44 46 -89 -12 -26 -72 -54 -85
-40 -11 11 7 36 27 36 11 0 20 5 20 10 0 7 -13 8 -35 4 -28 -5 -35 -3 -35 10
0 8 12 22 28 30 15 8 22 15 16 16 -5 0 -19 -6 -29 -14 -15 -11 -19 -27 -20
-77 -1 -35 0 -56 3 -46 2 9 12 17 23 17 22 0 24 -11 7 -28 -9 -9 -9 -12 0 -12
7 0 15 7 19 16 3 8 17 20 30 25 13 5 29 21 36 36 7 17 21 29 33 30 21 2 21 2
-6 -68 -15 -38 -31 -74 -37 -80 -15 -15 -183 49 -183 71 0 16 44 142 56 162 8
12 32 10 86 -9z m92 -7 c3 -13 9 -31 12 -40 4 -11 0 -16 -14 -16 -14 0 -21 9
-26 31 -9 49 16 72 28 25z"/>
<path d="M2491 2456 c-4 -6 -28 -60 -52 -120 -38 -93 -49 -110 -76 -124 -18
-9 -33 -22 -33 -29 0 -11 339 -183 361 -183 5 0 16 15 24 33 8 17 40 79 69
137 30 58 55 110 55 115 1 17 -338 184 -348 171z m309 -180 c0 -10 -81 -176
-86 -176 -7 0 -268 131 -275 138 -4 4 8 41 26 82 19 41 36 82 38 91 4 14 31 3
151 -58 80 -40 146 -75 146 -77z m-342 -127 c32 -18 52 -18 52 1 0 5 -6 7 -14
4 -7 -3 -16 2 -19 10 -4 9 -2 16 3 16 6 0 10 -4 10 -10 0 -5 6 -9 13 -7 7 1
11 -7 10 -20 -3 -21 7 -28 32 -23 6 1 7 -2 3 -6 -10 -9 71 -46 83 -38 6 3 5
12 -3 22 -10 12 -6 11 17 -3 39 -25 44 -30 22 -22 -35 13 -39 -5 -5 -26 18
-11 28 -22 21 -24 -11 -4 -61 20 -152 74 -24 14 -54 27 -66 29 -28 3 -115 52
-115 65 0 10 58 -12 108 -42z"/>
<path d="M2588 2300 c-12 -7 -17 -23 -16 -53 0 -41 1 -41 15 -19 9 12 22 22
29 22 8 0 14 5 14 11 0 6 -8 8 -19 4 -11 -3 -22 -1 -25 4 -10 16 26 30 52 20
33 -13 27 -62 -8 -69 -14 -3 -26 -11 -28 -18 -3 -17 35 -7 61 16 23 20 22 47
-3 72 -22 22 -46 25 -72 10z"/>
<path d="M510 2422 c-104 -52 -107 -208 -6 -256 69 -32 149 -11 187 51 17 27
20 45 17 89 -5 61 -31 97 -85 120 -43 18 -71 18 -113 -4z m138 -40 c98 -92 0
-249 -122 -198 -38 16 -76 67 -76 102 0 105 124 165 198 96z"/>
<path d="M542 2369 c-12 -5 -27 -20 -34 -34 -10 -22 -8 -29 14 -53 14 -15 28
-35 31 -44 4 -10 12 -18 18 -18 8 0 9 4 0 13 -12 15 -5 27 17 27 10 0 13 -7 9
-21 -4 -13 -2 -18 3 -13 5 5 11 18 13 29 2 11 7 28 11 37 21 48 -30 97 -82 77z
m71 -30 c11 -18 -18 -68 -40 -69 -16 0 -17 22 -1 38 6 6 8 15 4 19 -4 5 -13 0
-20 -10 -13 -17 -46 -24 -46 -9 0 4 7 18 16 30 19 27 71 27 87 1z"/>
<path d="M1111 2245 c-2 -52 18 -100 57 -143 22 -23 44 -42 51 -42 6 0 -4 14
-24 31 -44 39 -65 77 -75 138 -6 35 -8 39 -9 16z"/>
<path d="M739 2189 c-14 -14 -14 -18 3 -39 10 -12 18 -17 18 -11 0 7 9 15 19
19 19 7 19 8 -2 27 -21 18 -24 19 -38 4z"/>
<path d="M2198 2146 c-15 -11 -15 -13 2 -24 14 -8 21 -8 29 2 17 20 -9 38 -31
22z"/>
<path d="M321 2113 c-47 -23 -71 -67 -71 -129 0 -105 99 -164 197 -117 46 21
73 67 73 121 0 57 -25 98 -75 122 -50 24 -79 25 -124 3z m131 -33 c53 -41 61
-125 15 -168 -55 -52 -120 -49 -168 6 -28 31 -31 40 -26 81 7 62 49 101 111
101 28 0 52 -7 68 -20z"/>
<path d="M380 2035 c-13 -14 -29 -25 -35 -25 -7 0 -20 -9 -30 -20 -18 -20 -18
-21 6 -46 18 -19 31 -24 59 -22 31 3 38 9 59 51 32 65 19 72 -16 8 -15 -28
-34 -51 -41 -51 -20 0 -72 29 -72 41 0 16 29 22 45 9 11 -9 18 -4 34 28 11 22
26 42 33 45 9 4 8 6 -3 6 -8 1 -26 -10 -39 -24z"/>
<path d="M1026 1981 c-4 -5 -26 -23 -50 -39 -33 -23 -47 -27 -61 -19 -13 7
-16 6 -11 -2 4 -6 1 -11 -6 -11 -7 0 -24 -6 -38 -13 -37 -19 -70 -27 -70 -16
0 6 -7 6 -17 1 -10 -5 -57 -12 -105 -16 -48 -3 -99 -11 -115 -17 -115 -44
-167 -177 -98 -257 20 -23 25 -25 46 -14 l24 11 -26 -5 c-18 -4 -28 -1 -32 9
-4 11 19 23 89 47 52 18 93 34 91 36 -5 5 -77 -17 -144 -44 -37 -15 -52 -18
-56 -9 -3 8 6 12 25 13 16 1 39 11 51 22 36 34 110 62 194 72 43 6 99 17 126
26 49 16 65 29 23 18 -15 -3 -41 3 -73 19 -56 29 -160 52 -198 44 -17 -3 -23
-1 -17 5 5 5 56 11 113 12 80 2 113 -2 144 -15 54 -23 95 -34 75 -20 -10 7
-11 11 -3 11 7 0 20 15 28 33 9 17 37 51 63 74 26 23 44 44 40 48 -3 3 -9 2
-12 -4z m-101 -111 c-16 -30 -31 -35 -72 -24 -34 9 -28 17 25 35 65 22 64 22
47 -11z m-203 -66 c85 -24 74 -47 -27 -58 -65 -7 -157 -45 -192 -78 -34 -32
-57 -17 -50 33 13 102 123 143 269 103z"/>
<path d="M974 1797 c-28 -24 -79 -61 -112 -82 -58 -37 -81 -62 -47 -49 8 4 15
2 15 -4 0 -6 -6 -13 -12 -15 -9 -4 -9 -6 -1 -6 6 -1 -4 -26 -23 -58 -27 -45
-34 -67 -32 -97 2 -23 9 -41 17 -44 10 -3 11 0 5 9 -18 30 5 114 48 174 16 22
68 79 115 128 48 48 85 87 83 87 -3 0 -28 -20 -56 -43z"/>
<path d="M1060 1729 c-10 -35 -8 -61 4 -48 5 6 15 89 10 89 -2 0 -8 -18 -14
-41z"/>
<path d="M887 1408 c-3 -9 8 -13 39 -13 38 0 42 2 27 13 -9 6 -27 12 -39 12
-12 0 -24 -6 -27 -12z"/>
<path d="M895 1363 c-19 -15 -18 -15 14 -9 18 3 41 6 50 6 14 0 14 2 1 10 -21
14 -42 12 -65 -7z"/>
<path d="M265 1065 c-20 -20 -20 -20 0 -40 20 -20 20 -20 40 0 20 20 20 20 0
40 -20 20 -20 20 -40 0z"/>
<path d="M2625 905 c-55 -5 -100 -14 -100 -20 0 -5 6 -35 14 -66 14 -56 13
-57 -14 -93 -32 -42 -32 -41 49 -90 66 -40 81 -38 113 16 11 18 45 61 76 94
31 34 57 66 57 71 0 5 -21 29 -47 54 l-48 45 -100 -11z m132 -47 l42 -41 -63
-71 c-35 -39 -68 -81 -75 -93 -16 -30 -31 -29 -91 8 -56 34 -56 26 -2 98 14
19 18 29 9 25 -10 -4 -16 5 -20 33 -3 21 -8 46 -12 55 -6 15 2 17 57 21 34 2
74 4 88 5 17 1 37 -11 67 -40z"/>
</g>
</svg>
